<?xml version="1.0" encoding="UTF-8" standalone="no"?>
<svg
   width="234.3885"
   height="28.722958"
   viewBox="0 0 234.3885 28.722958"
   fill="none"
   version="1.1"
   id="svg1"
   xmlns="http://www.w3.org/2000/svg"
   xmlns:svg="http://www.w3.org/2000/svg">
  <path
     d="m 7.89824,12.8323 c 0.63184,0.3028 1.13204,0.7372 1.50064,1.3033 0.3818,0.566 0.5727,1.2176 0.5727,1.9548 0,1.1057 -0.3884,2.0338 -1.165,2.7841 C 8.02988,19.6248 7.08209,20 5.96317,20 H 4.283905e-8 V 6.1781 H 5.52877 c 1.07943,0 1.99431,0.362 2.74464,1.086 0.75037,0.724 1.12547,1.6191 1.12547,2.6854 0,1.2242 -0.5002,2.1852 -1.50064,2.8828 z M 5.52877,7.8959 H 1.83634 v 4.2256 h 3.69243 c 0.5792,0 1.06626,-0.204 1.46117,-0.6121 C 7.38486,11.1013 7.58231,10.6011 7.58231,10.0087 7.58231,9.4295 7.37827,8.9359 6.9702,8.5278 6.57529,8.1066 6.09481,7.8959 5.52877,7.8959 Z m 0.4344,10.3862 c 0.6187,0 1.13867,-0.2172 1.55991,-0.6516 0.42124,-0.4344 0.63186,-0.9675 0.63186,-1.5994 0,-0.6187 -0.21721,-1.1452 -0.65161,-1.5796 C 7.08209,14.0171 6.5687,13.7999 5.96317,13.7999 H 1.83634 v 4.4822 z m 13.03161,-8.1549 h 1.7179 V 20 h -1.7179 v -1.4217 c -0.6976,1.1189 -1.7639,1.6784 -3.1988,1.6784 -1.1584,0 -2.0864,-0.362 -2.7841,-1.086 -0.6977,-0.7372 -1.0465,-1.731 -1.0465,-2.9816 v -6.0619 h 1.7179 v 5.9632 c 0,0.803 0.2172,1.4282 0.6516,1.8758 0.4344,0.4344 1.0333,0.6516 1.7968,0.6516 0.8557,0 1.5468,-0.2633 2.0733,-0.7898 0.5266,-0.5397 0.7898,-1.3625 0.7898,-2.4682 z m 5.2021,-1.7969 c -0.3291,0 -0.6056,-0.1118 -0.8293,-0.3356 -0.2238,-0.2238 -0.3357,-0.4937 -0.3357,-0.8096 0,-0.3159 0.1119,-0.5858 0.3357,-0.8096 0.2237,-0.2369 0.5002,-0.3554 0.8293,-0.3554 0.3159,0 0.5858,0.1185 0.8095,0.3554 0.2238,0.2238 0.3357,0.4937 0.3357,0.8096 0,0.3159 -0.1119,0.5858 -0.3357,0.8096 -0.2237,0.2238 -0.4936,0.3356 -0.8095,0.3356 z M 23.32808,20 v -9.8728 h 1.7178 V 20 Z m 4.3386,0 V 5.5857 h 1.7179 V 20 Z m 9.7094,-8.2142 h -2.6261 v 5.3511 c 0,0.487 0.0921,0.8359 0.2764,1.0465 0.1975,0.1975 0.4936,0.3028 0.8886,0.3159 0.3949,0 0.8819,-0.0131 1.4611,-0.0395 V 20 c -1.5006,0.1975 -2.5998,0.079 -3.2975,-0.3554 -0.6977,-0.4476 -1.0465,-1.2835 -1.0465,-2.5077 v -5.3511 h -1.9548 v -1.6586 h 1.9548 v -2.251 l 1.7179,-0.5134 v 2.7644 h 2.6261 z m 15.3607,6.9702 c -1.0136,1.0005 -2.2444,1.5007 -3.6924,1.5007 -1.448,0 -2.6788,-0.5002 -3.6924,-1.5007 -1.0005,-1.0004 -1.5007,-2.2312 -1.5007,-3.6924 0,-1.4612 0.5002,-2.692 1.5007,-3.6924 1.0136,-1.0005 2.2444,-1.5007 3.6924,-1.5007 1.448,0 2.6788,0.5002 3.6924,1.5007 1.0136,1.0004 1.5204,2.2312 1.5204,3.6924 0,1.4612 -0.5068,2.692 -1.5204,3.6924 z m -3.6924,-0.1777 c 0.9873,0 1.8166,-0.3357 2.4879,-1.007 0.6714,-0.6714 1.0071,-1.5073 1.0071,-2.5077 0,-1.0004 -0.3357,-1.8363 -1.0071,-2.5077 -0.6713,-0.6713 -1.5006,-1.007 -2.4879,-1.007 -0.9741,0 -1.7969,0.3357 -2.4682,1.007 -0.6714,0.6714 -1.007,1.5073 -1.007,2.5077 0,1.0004 0.3356,1.8363 1.007,2.5077 0.6713,0.6713 1.4941,1.007 2.4682,1.007 z m 12.1546,-8.7078 c 1.1585,0 2.0865,0.3686 2.7842,1.1058 0.6977,0.724 1.0465,1.7112 1.0465,2.9618 V 20 h -1.7179 v -5.9632 c 0,-0.803 -0.2172,-1.4217 -0.6516,-1.8561 -0.4344,-0.4475 -1.0333,-0.6713 -1.7968,-0.6713 -0.8557,0 -1.5468,0.2698 -2.0733,0.8096 -0.5266,0.5265 -0.7898,1.3427 -0.7898,2.4484 V 20 h -1.7179 v -9.8728 h 1.7179 v 1.4217 c 0.6976,-1.1189 1.7639,-1.6784 3.1987,-1.6784 z"
     fill="#121212"
     id="path1" />
  <defs
     id="defs1" />
  <path
     fill-rule="evenodd"
     clip-rule="evenodd"
     d="m 104.29688,16.66591 -2.1943,-2.2223 c -0.8335,0.7777 -1.676,1.3937 -2.5282,1.8476 -0.8515,0.4534 -1.8702,0.6801 -3.0552,0.6801 -0.92607,0 -1.78243,-0.1802 -2.56946,-0.5415 -0.78702,-0.3612 -1.46761,-0.8563 -2.04176,-1.4862 -0.57416,-0.6296 -1.01827,-1.3656 -1.33345,-2.2081 -0.31481,-0.8424 -0.47184,-1.7456 -0.47184,-2.7079 0,-0.9631 0.15703,-1.8614 0.47184,-2.6949 0.31518,-0.833 0.75929,-1.5597 1.33345,-2.1803 0.57415,-0.62017 1.25474,-1.11072 2.04176,-1.47198 0.78703,-0.36088 1.64339,-0.54151 2.56946,-0.54151 1.1108,0 2.1017,0.22223 2.972,0.66668 0.8706,0.44408 1.6947,1.02757 2.472,1.74971 l 2.1946,-2.52732 c -0.4628,-0.44445 -0.9534,-0.85181 -1.4721,-1.22244 -0.5183,-0.37025 -1.0831,-0.68991 -1.6943,-0.95823 -0.6113,-0.2687 -1.2825,-0.47669 -2.0141,-0.62471 C 98.24578,0.0742 97.43548,0 96.54688,0 c -1.48145,0 -2.83326,0.2642 -4.0554,0.79185 -1.22251,0.52765 -2.27788,1.2498 -3.16684,2.16644 -0.88897,0.91664 -1.57855,1.9858 -2.069504,3.20822 -0.490954,1.2221 -0.736056,2.5277 -0.736056,3.9165 0,1.4072 0.249974,2.7219 0.749923,3.9443 0.499947,1.2217 1.189907,2.2819 2.069497,3.1801 0.8796,0.8979 1.9211,1.6062 3.12487,2.1249 1.20377,0.5186 2.51886,0.7776 3.9445,0.7776 0.90771,0 1.73631,-0.0787 2.48621,-0.2361 0.75,-0.1574 1.4399,-0.3886 2.0695,-0.694 0.6297,-0.3058 1.2177,-0.6671 1.7641,-1.0835 0.546,-0.4167 1.0692,-0.8937 1.5692,-1.4304"
     id="path1-2"
     style="opacity:1" />
  <path
     fill-rule="evenodd"
     clip-rule="evenodd"
     d="m 92.166311,21.037059 -2.1943,-2.2223 c -0.8335,0.7777 -1.676,1.3937 -2.5282,1.8476 -0.8515,0.4534 -1.8702,0.6801 -3.0552,0.6801 -0.92607,0 -1.78243,-0.1802 -2.56946,-0.5415 -0.78702,-0.3612 -1.46761,-0.8563 -2.04176,-1.4862 -0.57416,-0.6296 -1.01827,-1.3656 -1.33345,-2.2081 -0.31481,-0.8424 -0.47184,-1.7456 -0.47184,-2.7079 0,-0.9631 0.15703,-1.8614 0.47184,-2.6949 0.31518,-0.833 0.75929,-1.5597 1.33345,-2.1803 0.57415,-0.62017 1.25474,-1.11072 2.04176,-1.47198 0.78703,-0.36088 1.64339,-0.54151 2.56946,-0.54151 1.1108,0 2.1017,0.22223 2.972,0.66668 0.8706,0.44408 1.6947,1.02757 2.472,1.74971 l 2.1946,-2.52732 c -0.4628,-0.44445 -0.9534,-0.85181 -1.4721,-1.22244 -0.5183,-0.37025 -1.0831,-0.68991 -1.6943,-0.95823 -0.6113,-0.2687 -1.2825,-0.47669 -2.0141,-0.62471 -0.7315,-0.14841 -1.5418,-0.22261 -2.4304,-0.22261 -1.48145,0 -2.83326,0.2642 -4.0554,0.79185 -1.22251,0.52765 -2.27788,1.2498 -3.16684,2.16644 -0.88897,0.91664 -1.57855,1.9858 -2.069504,3.20822 -0.490954,1.2221 -0.736056,2.5277 -0.736056,3.9165 0,1.4072 0.249974,2.7219 0.749923,3.9443 0.499947,1.2217 1.189907,2.2819 2.069497,3.1801 0.8796,0.8979 1.9211,1.6062 3.12487,2.1249 1.20377,0.5186 2.51886,0.7776 3.9445,0.7776 0.90771,0 1.73631,-0.0787 2.48621,-0.2361 0.75,-0.1574 1.4399,-0.3886 2.0695,-0.694 0.6297,-0.3058 1.2177,-0.6671 1.7641,-1.0835 0.546,-0.4167 1.0692,-0.8937 1.5692,-1.4304"
     id="path1-9"
     style="fill:#000000;fill-opacity:1" />
  <path
     fill-rule="evenodd"
     clip-rule="evenodd"
     d="m 136.24311,9.876659 c 0,-0.64682 0.2762,-1.19645 0.8289,-1.64886 0.5524,-0.45315 1.3262,-0.67936 2.3207,-0.67936 0.8841,0 1.7589,0.17124 2.6244,0.51298 0.8659,0.34174 1.7407,0.83603 2.6244,1.48244 l 1.8235,-2.5772 c -0.9941,-0.79452 -2.0579,-1.39948 -3.1907,-1.81487 -1.1331,-0.41577 -2.4082,-0.62365 -3.8265,-0.62365 -0.9575,0 -1.8416,0.13385 -2.6475,0.40193 -0.8103,0.26771 -1.5006,0.65095 -2.0765,1.14972 -0.5755,0.49915 -1.0269,1.09476 -1.3582,1.78758 -0.3269,0.69282 -0.4928,1.46416 -0.4928,2.31399 0,0.9052 0.1428,1.6721 0.4283,2.3002 0.2855,0.6282 0.7044,1.1639 1.2479,1.6074 0.5431,0.4434 1.22,0.8128 2.021,1.1086 0.8058,0.2957 1.7224,0.5631 2.7582,0.8035 0.9028,0.2217 1.6344,0.4341 2.201,0.6371 0.5617,0.2034 1.0038,0.4206 1.3307,0.6513 0.322,0.2311 0.5434,0.4849 0.6631,0.762 0.1196,0.2774 0.1792,0.5911 0.1792,0.9422 0,0.7579 -0.3082,1.3584 -0.9251,1.8014 -0.6172,0.4438 -1.4507,0.6652 -2.5003,0.6652 -1.2155,0 -2.3024,-0.2173 -3.2599,-0.6513 -0.958,-0.4341 -1.9062,-1.0574 -2.8459,-1.8706 l -2.044,2.4389 c 1.1603,1.0529 2.422,1.8335 3.7847,2.3417 1.3631,0.5081 2.7903,0.762 4.282,0.762 1.0131,0 1.9434,-0.1294 2.7907,-0.3878 0.8423,-0.2591 1.5699,-0.6378 2.1685,-1.1366 0.6031,-0.4988 1.0728,-1.1082 1.4134,-1.8287 0.3362,-0.7205 0.5066,-1.5427 0.5066,-2.4666 0,-0.8128 -0.1335,-1.5195 -0.4007,-2.12 -0.2673,-0.6004 -0.6631,-1.1265 -1.1786,-1.5796 -0.5159,-0.4525 -1.1696,-0.8361 -1.9524,-1.1501 -0.7824,-0.3137 -1.6851,-0.6001 -2.6982,-0.8589 -0.9255,-0.2217 -1.6851,-0.4344 -2.2882,-0.6375 -0.5986,-0.203 -1.0683,-0.4247 -1.4138,-0.6651 -0.3407,-0.2401 -0.5751,-0.4988 -0.7045,-0.7758 -0.1286,-0.2775 -0.1934,-0.6099 -0.1934,-0.9976"
     id="path2"
     style="fill:#000000;fill-opacity:1" />
  <path
     fill-rule="evenodd"
     clip-rule="evenodd"
     d="m 174.06121,10.151359 v 13.8583 h 3.3753 v -19.3243 h -3.6247 l -5.8935,9.1377 -5.8935,-9.1377 h -3.6245 v 19.3243 h 3.3755 v -13.8032 l 6.0593,9.055 h 0.1109 l 6.1152,-9.1101"
     id="path3"
     style="fill:#000000;fill-opacity:1" />
  <path
     fill-rule="evenodd"
     clip-rule="evenodd"
     d="m 205.79751,14.454259 c 0,0.9443 -0.162,1.8377 -0.485,2.6805 -0.324,0.8425 -0.772,1.5736 -1.345,2.1938 -0.573,0.6203 -1.262,1.1112 -2.066,1.4724 -0.804,0.3613 -1.686,0.5416 -2.647,0.5416 -0.962,0 -1.849,-0.1852 -2.662,-0.5554 -0.813,-0.3707 -1.511,-0.8706 -2.093,-1.4998 -0.582,-0.6299 -1.035,-1.3659 -1.359,-2.2084 -0.323,-0.8424 -0.485,-1.7362 -0.485,-2.6802 0,-0.9448 0.162,-1.8382 0.485,-2.6806 0.324,-0.8428 0.772,-1.574 1.345,-2.1945 0.573,-0.62026 1.261,-1.11081 2.065,-1.47207 0.804,-0.36088 1.687,-0.54151 2.648,-0.54151 0.961,0 1.849,0.18512 2.662,0.55575 0.813,0.37026 1.511,0.87017 2.093,1.49973 0.582,0.6292 1.035,1.3656 1.359,2.2081 0.323,0.8424 0.485,1.7362 0.485,2.6806 z m 3.576,-0.0555 c 0,-1.3705 -0.249,-2.6667 -0.748,-3.8892 -0.499,-1.22167 -1.192,-2.28672 -2.079,-3.19399 -0.888,-0.90764 -1.95,-1.62492 -3.189,-2.15257 -1.239,-0.52765 -2.606,-0.79185 -4.103,-0.79185 -1.498,0 -2.865,0.2687 -4.104,0.80572 -1.238,0.53702 -2.31,1.26366 -3.216,2.1803 -0.906,0.91664 -1.608,1.98618 -2.107,3.20829 -0.499,1.222 -0.749,2.5183 -0.749,3.8887 0,1.3701 0.25,2.666 0.749,3.8885 0.499,1.2224 1.192,2.2871 2.079,3.1943 0.887,0.9073 1.95,1.625 3.189,2.1526 1.238,0.5277 2.606,0.7915 4.103,0.7915 1.497,0 2.865,-0.2687 4.103,-0.8054 1.239,-0.537 2.311,-1.2636 3.217,-2.1806 0.906,-0.9163 1.608,-1.9858 2.107,-3.2079 0.499,-1.2221 0.748,-2.5183 0.748,-3.8884 z"
     id="path4"
     style="fill:#000000;fill-opacity:1" />
  <path
     fill-rule="evenodd"
     clip-rule="evenodd"
     d="m 223.55851,9.876659 c 0,-0.64682 0.276,-1.19645 0.829,-1.64886 0.553,-0.45315 1.326,-0.67936 2.321,-0.67936 0.884,0 1.759,0.17124 2.624,0.51298 0.866,0.34174 1.741,0.83603 2.625,1.48244 l 1.823,-2.5772 c -0.994,-0.79452 -2.058,-1.39948 -3.191,-1.81487 -1.132,-0.41577 -2.408,-0.62365 -3.826,-0.62365 -0.958,0 -1.842,0.13385 -2.648,0.40193 -0.81,0.26771 -1.5,0.65095 -2.076,1.14972 -0.576,0.49915 -1.027,1.09476 -1.359,1.78758 -0.326,0.69282 -0.492,1.46416 -0.492,2.31399 0,0.9052 0.143,1.6721 0.428,2.3002 0.286,0.6282 0.705,1.1639 1.248,1.6074 0.543,0.4434 1.22,0.8128 2.021,1.1086 0.806,0.2957 1.722,0.5631 2.758,0.8035 0.903,0.2217 1.635,0.4341 2.201,0.6371 0.562,0.2034 1.004,0.4206 1.331,0.6513 0.322,0.2311 0.543,0.4849 0.663,0.762 0.12,0.2774 0.18,0.5911 0.18,0.9422 0,0.7579 -0.309,1.3584 -0.926,1.8014 -0.617,0.4438 -1.45,0.6652 -2.5,0.6652 -1.216,0 -2.303,-0.2173 -3.26,-0.6513 -0.958,-0.4341 -1.906,-1.0574 -2.846,-1.8706 l -2.044,2.4389 c 1.16,1.0529 2.422,1.8335 3.785,2.3417 1.363,0.5081 2.79,0.762 4.282,0.762 1.013,0 1.943,-0.1294 2.79,-0.3878 0.843,-0.2591 1.57,-0.6378 2.169,-1.1366 0.603,-0.4988 1.073,-1.1082 1.413,-1.8287 0.336,-0.7205 0.507,-1.5427 0.507,-2.4666 0,-0.8128 -0.134,-1.5195 -0.401,-2.12 -0.267,-0.6004 -0.663,-1.1265 -1.179,-1.5796 -0.515,-0.4525 -1.169,-0.8361 -1.952,-1.1501 -0.782,-0.3137 -1.685,-0.6001 -2.698,-0.8589 -0.925,-0.2217 -1.685,-0.4344 -2.288,-0.6375 -0.599,-0.203 -1.068,-0.4247 -1.414,-0.6651 -0.341,-0.2401 -0.575,-0.4988 -0.704,-0.7758 -0.129,-0.2775 -0.194,-0.6099 -0.194,-0.9976"
     id="path5"
     style="fill:#000000;fill-opacity:1" />
  <path
     fill-rule="evenodd"
     clip-rule="evenodd"
     d="m 115.32191,8.553879 -9.2491,9.23668 c -0.1193,-0.2311 -0.2269,-0.4719 -0.3234,-0.7216 -0.323,-0.8393 -0.4845,-1.7297 -0.4845,-2.6701 0,-0.9412 0.1615,-1.8313 0.4845,-2.6705 0.3234,-0.8396 0.7713,-1.568 1.344,-2.1863 0.5727,-0.61783 1.261,-1.10653 2.0644,-1.46642 0.8038,-0.35952 1.6857,-0.53947 2.6461,-0.53947 0.9608,0 1.8476,0.18443 2.66,0.55366 0.302,0.13701 0.588,0.29157 0.858,0.46405 z m -0.8162,12.22298 c -0.8037,0.3599 -1.6857,0.5395 -2.6461,0.5395 -0.9608,0 -1.8475,-0.1844 -2.6603,-0.5533 -0.3017,-0.1374 -0.5877,-0.2919 -0.8572,-0.4648 l 9.2487,-9.2359 c 0.1192,0.2307 0.2269,0.4711 0.3233,0.7212 0.323,0.8393 0.4846,1.7297 0.4846,2.6705 0,0.9408 -0.1616,1.8309 -0.4846,2.6705 -0.3233,0.8392 -0.7712,1.5676 -1.344,2.1855 -0.5727,0.6179 -1.2606,1.1069 -2.0644,1.4668 z m 1.3994,2.8639 c 1.2378,-0.535 2.3092,-1.2589 3.2143,-2.1725 0.9051,-0.9128 1.6068,-1.9783 2.1056,-3.1957 0.499,-1.2174 0.7484,-2.5088 0.7484,-3.8737 0,-1.3653 -0.2494,-2.6567 -0.7484,-3.8745 -0.2958,-0.722 -0.6599,-1.38881 -1.0921,-2.00071 l 6.0157,-6.00733 -2.3904,-2.38711 -6.034,6.02563 c -0.5417,-0.36885 -1.1298,-0.68768 -1.7638,-0.95686 -1.2378,-0.52565 -2.6046,-0.78885 -4.1008,-0.78885 -1.4965,0 -2.8633,0.26768 -4.1011,0.80267 -1.2378,0.53499 -2.3093,1.25888 -3.2144,2.17206 -0.9051,0.91318 -1.6072,1.9787 -2.1059,3.1961 -0.4987,1.2175 -0.7481,2.5088 -0.7481,3.8741 0,1.3649 0.2494,2.6559 0.7481,3.8738 0.2961,0.7224 0.6602,1.3891 1.0924,2.0014 l -6.015299,6.0066 2.390399,2.3871 6.0336,-6.0253 c 0.5417,0.3689 1.1298,0.6877 1.7638,0.9569 1.2379,0.5257 2.6047,0.7885 4.1008,0.7885 1.4965,0 2.8633,-0.2677 4.1012,-0.8023 z"
     id="path6"
     style="fill:#000000;fill-opacity:1" />
</svg>
