<svg width="335" height="52" viewBox="0 0 335 52" fill="none" xmlns="http://www.w3.org/2000/svg">
<path d="M6.4963 17.1781C7.77319 17.1781 8.83287 17.6059 9.67535 18.4615C10.531 19.304 10.9588 20.3571 10.9588 21.6208C10.9588 22.8714 10.531 23.9245 9.67535 24.7801C8.83287 25.6358 7.77319 26.0636 6.4963 26.0636H3.31726V31H1.48092V17.1781H6.4963ZM6.4963 24.3457C7.2598 24.3457 7.89166 24.089 8.39188 23.5757C8.8921 23.0491 9.14222 22.3975 9.14222 21.6208C9.14222 20.831 8.8921 20.1794 8.39188 19.666C7.89166 19.1526 7.2598 18.8959 6.4963 18.8959H3.31726V24.3457H6.4963ZM20.5306 29.756C19.517 30.7565 18.2862 31.2567 16.8382 31.2567C15.3902 31.2567 14.1594 30.7565 13.1458 29.756C12.1453 28.7556 11.6451 27.5248 11.6451 26.0636C11.6451 24.6024 12.1453 23.3716 13.1458 22.3712C14.1594 21.3707 15.3902 20.8705 16.8382 20.8705C18.2862 20.8705 19.517 21.3707 20.5306 22.3712C21.5443 23.3716 22.0511 24.6024 22.0511 26.0636C22.0511 27.5248 21.5443 28.7556 20.5306 29.756ZM16.8382 29.5783C17.8255 29.5783 18.6548 29.2426 19.3262 28.5713C19.9975 27.8999 20.3332 27.064 20.3332 26.0636C20.3332 25.0632 19.9975 24.2273 19.3262 23.5559C18.6548 22.8846 17.8255 22.5489 16.8382 22.5489C15.8641 22.5489 15.0414 22.8846 14.37 23.5559C13.6987 24.2273 13.363 25.0632 13.363 26.0636C13.363 27.064 13.6987 27.8999 14.37 28.5713C15.0414 29.2426 15.8641 29.5783 16.8382 29.5783ZM35.3207 21.1272H37.1176L34.057 31H32.2996L29.9894 23.6941L27.6792 31H25.9218L22.8612 21.1272H24.6581L26.8301 28.6305L29.1601 21.1272H30.8187L33.1487 28.6503L35.3207 21.1272ZM39.7042 26.8534C39.8754 27.7354 40.2769 28.4199 40.9087 28.907C41.5537 29.394 42.3436 29.6376 43.2782 29.6376C44.5814 29.6376 45.5292 29.1571 46.1216 28.1961L47.5827 29.0254C46.6218 30.5129 45.1738 31.2567 43.2387 31.2567C41.6722 31.2567 40.3953 30.7696 39.4081 29.7955C38.4339 28.8082 37.9469 27.5643 37.9469 26.0636C37.9469 24.5761 38.4274 23.3387 39.3883 22.3514C40.3493 21.3641 41.5932 20.8705 43.1202 20.8705C44.5682 20.8705 45.7464 21.3839 46.6547 22.4107C47.5762 23.4243 48.0369 24.6485 48.0369 26.0833C48.0369 26.3335 48.0171 26.5901 47.9777 26.8534H39.7042ZM43.1202 22.4896C42.1988 22.4896 41.4353 22.7529 40.8297 23.2795C40.2242 23.7929 39.849 24.484 39.7042 25.3528H46.2993C46.1545 24.4181 45.7859 23.7073 45.1935 23.2202C44.6012 22.7332 43.9101 22.4896 43.1202 22.4896ZM51.7295 22.7858C52.2955 21.5616 53.3223 20.9495 54.8098 20.9495V22.7463C53.9673 22.7068 53.2433 22.9306 52.6378 23.4177C52.0322 23.9047 51.7295 24.688 51.7295 25.7674V31H50.0116V21.1272H51.7295V22.7858ZM57.1552 26.8534C57.3263 27.7354 57.7278 28.4199 58.3597 28.907C59.0047 29.394 59.7945 29.6376 60.7291 29.6376C62.0324 29.6376 62.9801 29.1571 63.5725 28.1961L65.0337 29.0254C64.0727 30.5129 62.6247 31.2567 60.6897 31.2567C59.1232 31.2567 57.8463 30.7696 56.859 29.7955C55.8849 28.8082 55.3978 27.5643 55.3978 26.0636C55.3978 24.5761 55.8783 23.3387 56.8393 22.3514C57.8002 21.3641 59.0442 20.8705 60.5712 20.8705C62.0192 20.8705 63.1973 21.3839 64.1056 22.4107C65.0271 23.4243 65.4878 24.6485 65.4878 26.0833C65.4878 26.3335 65.4681 26.5901 65.4286 26.8534H57.1552ZM60.5712 22.4896C59.6497 22.4896 58.8862 22.7529 58.2807 23.2795C57.6752 23.7929 57.3 24.484 57.1552 25.3528H63.7502C63.6054 24.4181 63.2368 23.7073 62.6445 23.2202C62.0521 22.7332 61.361 22.4896 60.5712 22.4896ZM75.618 17.1781H77.3358V31H75.618V29.3019C74.7623 30.6051 73.5183 31.2567 71.886 31.2567C70.5038 31.2567 69.3257 30.7565 68.3516 29.756C67.3775 28.7424 66.8904 27.5116 66.8904 26.0636C66.8904 24.6156 67.3775 23.3914 68.3516 22.3909C69.3257 21.3773 70.5038 20.8705 71.886 20.8705C73.5183 20.8705 74.7623 21.5221 75.618 22.8253V17.1781ZM72.1032 29.5981C73.1037 29.5981 73.9396 29.2624 74.6109 28.591C75.2823 27.9065 75.618 27.064 75.618 26.0636C75.618 25.0632 75.2823 24.2273 74.6109 23.5559C73.9396 22.8714 73.1037 22.5291 72.1032 22.5291C71.116 22.5291 70.2866 22.8714 69.6153 23.5559C68.9439 24.2273 68.6083 25.0632 68.6083 26.0636C68.6083 27.064 68.9439 27.9065 69.6153 28.591C70.2866 29.2624 71.116 29.5981 72.1032 29.5981ZM90.3247 20.8705C91.7069 20.8705 92.8851 21.3773 93.8592 22.3909C94.8333 23.3914 95.3204 24.6156 95.3204 26.0636C95.3204 27.5116 94.8333 28.7424 93.8592 29.756C92.8851 30.7565 91.7069 31.2567 90.3247 31.2567C88.6924 31.2567 87.4484 30.6051 86.5928 29.3019V31H84.8749V17.1781H86.5928V22.8253C87.4484 21.5221 88.6924 20.8705 90.3247 20.8705ZM90.1075 29.5981C91.0948 29.5981 91.9241 29.2624 92.5955 28.591C93.2668 27.9065 93.6025 27.064 93.6025 26.0636C93.6025 25.0632 93.2668 24.2273 92.5955 23.5559C91.9241 22.8714 91.0948 22.5291 90.1075 22.5291C89.1071 22.5291 88.2712 22.8714 87.5998 23.5559C86.9285 24.2273 86.5928 25.0632 86.5928 26.0636C86.5928 27.064 86.9285 27.9065 87.5998 28.591C88.2712 29.2624 89.1071 29.5981 90.1075 29.5981ZM103.876 21.1272H105.712L101.684 31.6121C101.263 32.731 100.67 33.5801 99.9069 34.1593C99.1566 34.7517 98.2878 35.0149 97.3005 34.9491V33.3497C98.5115 33.4419 99.4001 32.7705 99.9661 31.3357L100.144 30.9605L95.8393 21.1272H97.6756L101.032 28.8675L103.876 21.1272Z" fill="#121212"/>
<path fill-rule="evenodd" clip-rule="evenodd" d="M219.521 21.0001H228.442C229.23 21.0001 229.864 20.3074 229.767 19.5001C229.686 18.8228 229.088 18.3262 228.407 18.3262H217.317C216.582 18.3262 215.982 18.9277 215.982 19.6633V33.0326C215.982 33.7681 216.582 34.3697 217.317 34.3697H228.442C229.23 34.3697 229.864 33.6768 229.767 32.8695C229.686 32.1924 229.088 31.6958 228.407 31.6958H219.521C219.041 31.6958 218.652 31.3058 218.652 30.8248V28.5555C218.652 28.0747 219.041 27.6848 219.521 27.6848H226.217C227.005 27.6848 227.639 26.9921 227.542 26.185C227.461 25.5075 226.863 25.0109 226.182 25.0109H219.521C219.041 25.0109 218.652 24.6212 218.652 24.1401V21.8708C218.652 21.39 219.041 21.0001 219.521 21.0001ZM204.171 21.0001C205.662 21.0001 206.908 21.535 207.931 22.5821C208.176 22.8273 208.51 22.9611 208.888 22.9611C209.622 22.9611 210.223 22.3593 210.223 21.624C210.223 21.2453 210.045 20.8887 209.667 20.5545C208.087 19.0615 206.24 18.3262 204.171 18.3262C201.968 18.3262 200.077 19.1062 198.497 20.6883C196.94 22.2479 196.161 24.142 196.161 26.3479C196.161 28.5539 196.94 30.4479 198.497 32.03C200.077 33.5896 201.968 34.3697 204.171 34.3697C206.374 34.3697 208.265 33.5896 209.823 32.03C210.357 31.4951 210.357 30.6484 209.823 30.1359C209.311 29.6012 208.466 29.6012 207.931 30.1359C206.886 31.1833 205.64 31.6958 204.171 31.6958C202.702 31.6958 201.434 31.1833 200.388 30.1359C199.343 29.0887 198.831 27.8185 198.831 26.3479C198.831 24.8773 199.343 23.6295 200.388 22.5821C201.434 21.535 202.702 21.0001 204.171 21.0001ZM247.676 31.6958H238.792C238.311 31.6958 237.921 31.3051 237.921 30.8234V19.6982C237.921 19.016 237.425 18.4171 236.749 18.336C235.942 18.2393 235.251 18.8743 235.251 19.6633V33.0326C235.251 33.7681 235.852 34.3697 236.586 34.3697H247.711C248.499 34.3697 249.134 33.6768 249.037 32.8695C248.955 32.1924 248.357 31.6958 247.676 31.6958ZM303.853 18.3262H290.538C289.75 18.3262 289.116 19.0191 289.213 19.8262C289.294 20.5034 289.892 21.0001 290.573 21.0001H295.009C295.489 21.0001 295.878 21.39 295.878 21.8711V33.0326C295.878 33.8217 296.57 34.4568 297.376 34.3599C298.053 34.2783 298.549 33.6793 298.549 32.9972V21.8711C298.549 21.39 298.938 21.0001 299.418 21.0001H303.888C304.677 21.0001 305.311 20.3074 305.214 19.5001C305.133 18.8228 304.535 18.3262 303.853 18.3262ZM310.908 18.3262C310.174 18.3262 309.573 18.9277 309.573 19.6633V33.0326C309.573 33.7681 310.174 34.3697 310.908 34.3697C311.643 34.3697 312.243 33.7681 312.243 33.0326V19.6633C312.243 18.9277 311.643 18.3262 310.908 18.3262ZM284.195 26.192C282.971 25.412 281.325 25.0109 279.256 25.0109C276.519 25.0109 275.139 24.3424 275.139 23.0054C275.139 21.6685 276.519 21.0001 279.256 21.0001C280.769 21.0001 282.215 21.2898 283.595 21.8468C284.395 22.092 284.952 21.8023 285.263 21.0225C285.53 20.3317 285.174 19.6633 284.44 19.3291C282.905 18.6604 281.191 18.3262 279.256 18.3262C277.231 18.3262 275.607 18.7497 274.338 19.574C273.092 20.3986 272.469 21.5571 272.469 23.0054C272.469 24.5431 273.092 25.724 274.316 26.5038C275.54 27.2837 277.186 27.6848 279.256 27.6848C281.993 27.6848 283.372 28.3532 283.372 29.6903C283.372 31.0271 281.993 31.6958 279.256 31.6958H278.588C277.209 31.6958 275.762 31.4061 274.271 30.8488C273.582 30.6039 272.87 30.9157 272.58 31.6512C272.313 32.342 272.714 33.144 273.404 33.3892C274.939 34.0352 276.652 34.3697 278.588 34.3697H279.256C281.281 34.3697 282.905 33.9462 284.151 33.1216C285.419 32.2973 286.042 31.1385 286.042 29.6903C286.042 28.1528 285.419 26.9718 284.195 26.192ZM256.922 21.0001H265.845C266.633 21.0001 267.267 20.3074 267.17 19.5001C267.089 18.8228 266.491 18.3262 265.81 18.3262H254.72C253.985 18.3262 253.385 18.9277 253.385 19.6633V33.0326C253.385 33.7681 253.985 34.3697 254.72 34.3697H265.845C266.633 34.3697 267.267 33.6768 267.17 32.8695C267.089 32.1924 266.491 31.6958 265.81 31.6958H256.922C256.443 31.6958 256.055 31.3068 256.055 30.8271V28.5536C256.055 28.0737 256.443 27.6848 256.922 27.6848H263.62C264.408 27.6848 265.042 26.9921 264.945 26.185C264.864 25.5075 264.266 25.0109 263.585 25.0109H256.922C256.443 25.0109 256.055 24.6221 256.055 24.1422V21.8687C256.055 21.3888 256.443 21.0001 256.922 21.0001ZM181.603 26.6211C181.598 26.7817 181.379 26.8241 181.316 26.6761C181.289 26.6122 181.262 26.5481 181.234 26.484C181.182 26.3668 181.197 26.2305 181.273 26.1279C181.289 26.1069 181.321 26.0645 181.36 26.014C181.464 25.8781 181.614 25.8984 181.614 26.0491C181.614 26.247 181.609 26.4183 181.603 26.6211ZM180.454 23.4794C180.277 23.7985 179.823 23.8132 179.627 23.5055C179.596 23.458 179.566 23.4104 179.535 23.3626C178.827 22.274 178.012 21.2054 177.102 20.1669C176.879 19.9119 177.061 19.5118 177.4 19.5115H177.408C179.535 19.5115 180.65 20.0376 180.99 20.6799C181.274 21.2171 181.187 22.1566 180.454 23.4794ZM179.979 34.6156C179.865 34.9062 179.745 35.1949 179.62 35.4809C179.6 35.5203 179.582 35.5602 179.562 35.5993C178.779 37.1079 177.466 38.2958 175.711 39.1225C175.317 39.3078 174.886 38.947 175.003 38.5275C175.586 36.4388 176.027 34.1737 176.313 31.799C176.366 31.3562 176.584 30.9497 176.921 30.6579C177.643 30.0326 178.317 29.4083 178.937 28.7883L178.944 28.7813C179.249 28.4765 179.769 28.6077 179.893 29.0211C180.506 31.0602 180.54 32.9594 179.979 34.6156ZM175.208 42.1565C175.03 42.3476 174.847 42.5364 174.662 42.7224C174.338 43.0459 174.007 43.3589 173.669 43.6611C173.455 43.8515 173.132 43.6134 173.253 43.3537C173.288 43.2796 173.322 43.205 173.356 43.1298C173.498 42.8158 173.635 42.4937 173.769 42.1656C173.801 42.0882 173.867 42.0304 173.948 42.0097C174.285 41.9241 174.613 41.8297 174.932 41.7265C175.191 41.6431 175.394 41.9575 175.208 42.1565ZM171.705 40.271C170.996 40.3738 170.251 40.4402 169.472 40.4677C167.57 40.5344 165.56 40.3701 163.494 39.9893C163.242 39.9429 163.194 39.6019 163.422 39.4863C163.873 39.2579 164.324 39.0244 164.774 38.7853C167.935 37.1077 170.884 35.2739 173.465 33.3938C173.659 33.2528 173.925 33.4192 173.886 33.6558C173.528 35.8105 173.032 37.8388 172.41 39.68C172.304 39.9937 172.032 40.2235 171.705 40.271ZM170.974 43.1416C169.28 46.4791 167.193 48.3529 165.17 48.3151C162.971 48.276 160.779 45.9831 159.156 42.025L159.154 42.0206C159.051 41.7694 159.169 41.4818 159.418 41.3736C159.435 41.3659 159.452 41.3585 159.469 41.3508C159.576 41.3044 159.695 41.296 159.808 41.3277C162.845 42.1812 165.837 42.6266 168.64 42.6266C168.945 42.6266 169.247 42.6214 169.547 42.611C169.899 42.5984 170.244 42.5786 170.584 42.5515C170.899 42.5266 171.118 42.8596 170.974 43.1416ZM160.94 49.4884C159.932 49.618 158.91 49.6844 157.878 49.6844C153.264 49.6844 148.851 48.375 145.063 45.9319C144.802 45.7636 144.913 45.3585 145.222 45.3443C145.287 45.3413 145.347 45.338 145.4 45.3347C146.362 45.2721 147.418 45.1308 148.562 44.9101C150.995 44.4414 153.7 43.6374 156.532 42.5546C156.786 42.4576 157.069 42.5837 157.173 42.8354C157.173 42.837 157.174 42.8384 157.175 42.8398C158.272 45.5158 159.623 47.5379 161.14 48.8241C161.39 49.0369 161.266 49.4464 160.94 49.4884ZM147.214 32.8338C149.305 31.1283 151.756 29.4264 154.444 27.8153C154.502 31.2585 154.879 34.5643 155.546 37.5503C154.549 37.1245 153.555 36.6555 152.57 36.143C150.661 35.1497 148.865 34.0371 147.214 32.8338ZM140.709 42.0598C140.21 41.117 140.855 38.9332 144.131 35.6142L144.133 35.6126C144.475 35.2665 144.442 34.6985 144.06 34.3972C143.929 34.2939 143.799 34.1895 143.669 34.0851C143.343 33.821 142.871 33.8453 142.574 34.1424C142.51 34.2075 142.461 34.2564 142.447 34.2711C140.809 35.9545 139.663 37.5127 139.021 38.9144C138.839 39.3115 138.289 39.3544 138.049 38.9899C135.507 35.1423 134.142 30.6337 134.142 25.9144C134.142 24.2273 134.317 22.567 134.657 20.9542C134.709 20.7102 135.052 20.6946 135.125 20.9332C135.617 22.5614 136.418 24.2455 137.526 25.9485C139.017 28.2413 140.983 30.4454 143.313 32.4672C144.108 33.1573 144.948 33.8248 145.824 34.4687C147.6 35.7736 149.529 36.9779 151.582 38.046C152.492 38.5196 153.378 38.9715 154.286 39.3807C154.791 39.6084 155.366 39.6261 155.882 39.4234C156.31 39.2556 156.741 39.081 157.175 38.8995C157.646 38.7025 157.902 38.1877 157.777 37.6915C157.761 37.6295 157.749 37.5796 157.742 37.5503C157.027 34.5382 156.63 31.1474 156.583 27.5957L156.582 27.5964C156.582 27.5543 156.582 27.5114 156.581 27.4687C156.579 27.2746 156.58 27.079 156.577 26.8854C156.576 26.8236 156.578 26.719 156.578 26.657C156.579 26.6323 156.578 26.6078 156.578 26.5833C156.579 26.5833 156.579 26.5831 156.579 26.5831C156.58 26.3607 156.582 26.1386 156.586 25.9156C156.597 25.3064 156.619 24.7016 156.65 24.1017C156.65 24.1019 156.65 24.1021 156.649 24.1024C156.869 19.8166 157.595 15.7895 158.75 12.402C158.856 12.0885 158.69 11.7483 158.377 11.6413C158.071 11.5369 157.767 11.4371 157.462 11.3416C157.154 11.2448 156.825 11.4113 156.721 11.7173C155.47 15.3961 154.698 19.7607 154.492 24.3793C154.465 24.9652 154.147 25.4984 153.643 25.7974C150.912 27.4186 148.403 29.1372 146.236 30.8696C145.784 31.2306 145.139 31.2168 144.703 30.8376C142.531 28.9517 140.703 26.9033 139.321 24.778C136.605 20.602 135.96 16.668 137.504 13.7025C137.508 13.6955 137.512 13.6883 137.516 13.6815C137.713 13.3543 137.918 13.0315 138.131 12.7131C139.905 10.3608 143.208 8.99767 147.589 8.84362C147.866 8.83383 148.145 8.82893 148.426 8.82893C151.113 8.82893 153.997 9.27292 156.929 10.1203L156.93 10.1196C156.994 10.1383 157.059 10.1576 157.123 10.1765C157.172 10.1912 157.222 10.2049 157.272 10.2198C157.271 10.2201 157.272 10.2196 157.272 10.2198C157.949 10.4226 158.629 10.6475 159.309 10.8927C159.309 10.8929 159.31 10.8925 159.309 10.8927C159.325 10.8983 159.341 10.9041 159.357 10.9097C159.534 10.9738 159.712 11.0395 159.889 11.1064C159.944 11.1274 160 11.1486 160.055 11.17C160.108 11.1905 160.162 11.2104 160.215 11.2311L160.214 11.232C161.647 11.7872 163.078 12.4328 164.491 13.1683C167.226 14.5914 169.73 16.2596 171.909 18.0899C167.751 19.0438 162.917 20.884 158.058 23.3652C157.833 23.4799 157.686 23.7055 157.672 23.9572C157.655 24.2588 157.632 24.8652 157.616 25.3472C157.606 25.6497 157.926 25.8501 158.193 25.7093L158.196 25.7077C163.008 23.1776 167.81 21.2865 171.933 20.2872C172.704 20.1005 173.203 19.3591 173.095 18.5725C173.019 18.023 172.934 17.482 172.839 16.9507C172.72 16.2832 172.356 15.6863 171.817 15.2756C169.886 13.8022 167.757 12.4507 165.478 11.2649C163.943 10.466 162.385 9.76584 160.823 9.16874C160.489 9.04102 160.346 8.64575 160.521 8.33321C162.129 5.45141 164.042 3.83746 165.906 3.83746C165.926 3.83746 165.945 3.83746 165.964 3.83792C168.163 3.87731 170.355 6.16994 171.979 10.128C172.801 12.1316 173.437 14.4422 173.872 16.9532C173.87 16.9511 173.868 16.9493 173.866 16.9472C174.051 18.0188 174.201 19.1263 174.312 20.2625C174.303 20.2685 174.292 20.2739 174.283 20.2799C174.296 20.2932 174.31 20.3065 174.323 20.32C174.507 22.2265 174.585 24.2117 174.548 26.2375C174.526 27.5188 174.457 28.7825 174.347 30.0189C171.406 32.3994 167.769 34.7684 163.771 36.89C162.457 37.5873 161.144 38.2364 159.843 38.834C159.823 38.8433 159.803 38.8524 159.783 38.8617C159.683 38.9071 159.584 38.9533 159.484 38.9983C159.483 38.998 159.483 38.9978 159.482 38.9976C158.404 39.4858 157.337 39.9375 156.287 40.35C156.287 40.3503 156.287 40.3507 156.287 40.351C156.228 40.3743 156.169 40.3966 156.11 40.4197C156.036 40.4486 155.962 40.477 155.889 40.5055C155.713 40.5731 155.537 40.6397 155.362 40.7052C155.314 40.7232 155.265 40.742 155.217 40.7598C155.005 40.8388 154.793 40.9154 154.583 40.9909C154.557 41.0003 154.53 41.0103 154.504 41.0196C154.504 41.0194 154.503 41.0194 154.503 41.0191C152.253 41.8216 150.11 42.4278 148.157 42.8042C143.438 43.714 141.215 43.016 140.709 42.0598ZM144.099 6.55495C148.093 3.69039 152.867 2.14473 157.878 2.14473C159.2 2.14473 160.506 2.2531 161.785 2.46449C162.128 2.52112 162.243 2.95905 161.969 3.1737C160.73 4.14696 159.578 5.58705 158.559 7.45457C158.31 7.9102 157.782 8.13301 157.283 7.99224C153.906 7.04019 150.583 6.59224 147.513 6.70015C146.381 6.74 145.309 6.8549 144.301 7.04089C144.018 7.09309 143.865 6.72252 144.099 6.55495ZM176.681 23.8784C176.674 23.606 177.023 23.4897 177.181 23.7115C177.374 23.984 177.561 24.2578 177.74 24.5331C177.978 24.899 178.199 25.2628 178.405 25.6243C178.533 25.8496 178.503 26.1323 178.328 26.3239C178.051 26.6288 177.75 26.9439 177.424 27.2706C177.305 27.3897 177.183 27.509 177.059 27.6286C176.906 27.7773 176.648 27.664 176.656 27.4501C176.672 27.0602 176.683 26.6689 176.69 26.2757C176.704 25.4702 176.701 24.6706 176.681 23.8784ZM174.219 8.67488C174.368 8.81658 174.516 8.96061 174.662 9.10674C176.949 11.3973 178.711 14.0737 179.889 16.9886C180.008 17.2825 179.758 17.5902 179.447 17.534C178.765 17.4114 177.998 17.3567 177.149 17.3709C176.56 17.3807 176.049 16.9677 175.945 16.3874C175.484 13.7959 174.817 11.4022 173.96 9.313C173.911 9.19391 173.862 9.07621 173.812 8.95968C173.703 8.70541 174.019 8.48423 174.219 8.67488ZM183.196 20.5247C182.174 15.659 179.769 11.1884 176.176 7.58998C171.288 2.69545 164.79 9.91821e-05 157.878 9.91821e-05C150.966 9.91821e-05 144.467 2.69545 139.579 7.58998C138.391 8.78046 137.333 10.0667 136.412 11.4306C136.137 11.796 135.892 12.182 135.674 12.5859C133.279 16.5705 132 21.1441 132 25.9144C132 32.8366 134.692 39.3441 139.579 44.2387C144.467 49.1332 150.966 51.829 157.878 51.829C164.79 51.829 171.288 49.1332 176.176 44.2387C178.483 41.9288 180.3 39.2593 181.576 36.3568C181.732 36.0351 181.868 35.7058 181.985 35.37C183.147 32.397 183.755 29.2027 183.755 25.9144C183.755 24.1045 183.57 22.3237 183.211 20.5918C183.206 20.5694 183.201 20.547 183.196 20.5247ZM328.149 28.3532H323.254C322.794 28.3532 322.507 27.8542 322.737 27.4552L325.193 23.2112C325.423 22.8126 325.998 22.8136 326.227 23.2126L328.667 27.4568C328.896 27.8556 328.609 28.3532 328.149 28.3532ZM334.589 32.3866L326.868 18.9725C326.312 18.1034 325.11 18.1034 324.554 18.9725L316.833 32.3866C316.74 32.5546 316.694 32.7226 316.681 32.9172C316.632 33.6747 317.22 34.3517 317.978 34.3692C318.506 34.3816 318.918 34.1147 319.236 33.5453L320.43 31.4669C320.586 31.1949 320.875 31.0271 321.189 31.0271H330.211C330.524 31.0271 330.814 31.1949 330.97 31.4669L332.164 33.5453C332.465 34.0846 332.872 34.3527 333.362 34.3687C334.111 34.3937 334.745 33.7835 334.745 33.0326C334.745 32.8322 334.701 32.6315 334.589 32.3866Z" fill="#B900F7"/>
</svg>
